<svg width="39" height="38" viewBox="0 0 39 38" fill="none" xmlns="http://www.w3.org/2000/svg">
<path d="M17.9524 3.06953C17.5223 2.49989 17.5916 1.29166 17.6526 0.225825C17.6551 0.179887 17.6577 0.134963 17.6602 0.0893205C18.2629 0.0317928 18.873 0 19.4905 0C21.8568 0 24.121 0.435711 26.2105 1.22558C24.7199 1.94161 22.4125 3.17401 19.8477 4.99496C18.9727 4.24225 18.3125 3.54738 17.9524 3.06953Z" fill="white"/>
<path d="M8.32032 13.9107C9.25724 14.0165 10.0474 14.1702 10.7232 14.3857C7.49273 20.0232 6.23319 27.1454 5.92498 32.3054C2.72462 29.0461 0.692172 24.64 0.5 19.7595C2.70517 17.0501 5.62649 13.6052 8.32032 13.9107Z" fill="white"/>
<path d="M27.5248 9.04517C25.255 8.57309 23.1226 7.43123 21.4221 6.22596C24.9694 3.78415 27.9278 2.51691 28.5162 2.2757C32.1962 4.26408 35.141 7.43216 36.8543 11.2708C34.6274 10.384 32.2159 9.93283 29.847 9.49324C29.0807 9.35099 28.2886 9.20399 27.5248 9.04517Z" fill="white"/>
<path d="M14.3864 9.59782C14.1839 9.80133 13.9819 10.0083 13.7811 10.2192C13.0406 10.9962 12.3688 11.846 11.7527 12.7451C10.8554 12.4065 9.79906 12.1663 8.53463 12.0235C5.55538 11.6866 2.90627 14.0456 0.632568 16.6424C1.12006 12.7056 2.80937 9.14243 5.3265 6.3324C6.70043 6.49789 8.23217 6.77828 9.79338 7.24391C10.8175 7.54964 12.4485 8.38032 14.3864 9.59782Z" fill="white"/>
<path d="M16.8877 19.4095C16.1081 16.7702 15.205 14.8675 13.4551 13.6323C13.9803 12.8788 14.5455 12.1718 15.1575 11.5293C15.4408 11.2321 15.727 10.945 16.0148 10.663C23.0347 15.439 32.6507 24.2121 33.5251 31.8136C30.6064 35.0056 26.6118 37.1946 22.115 37.8156C20.4776 34.5574 18.9365 27.9336 18.0205 23.9942C17.5803 22.102 17.2006 20.4683 16.8877 19.4095Z" fill="white"/>
<path d="M24.8475 15.2243C22.3997 12.9699 19.8149 10.9483 17.4507 9.32353C18.2388 8.62664 19.0291 7.98425 19.8052 7.39508C21.7689 8.87049 24.34 10.3237 27.1384 10.9055C27.9223 11.0685 28.7247 11.2175 29.5007 11.3615C32.49 11.9163 35.3598 12.4537 37.773 13.7995C38.2429 15.453 38.5001 17.1963 38.5001 19.0005C38.5001 23.0361 37.2372 26.7755 35.0907 29.8526C33.6999 24.3492 28.9299 18.9844 24.8475 15.2243Z" fill="white"/>
<path d="M15.8132 8.2386C13.5518 6.79754 11.602 5.80113 10.337 5.42373C9.20103 5.08465 8.08672 4.83767 7.03149 4.65757C9.4699 2.53966 12.4506 1.0302 15.741 0.372253C15.6681 1.69919 15.6362 3.15602 16.4349 4.21447C16.8142 4.7171 17.4562 5.40646 18.2916 6.15434C17.4735 6.79078 16.6422 7.48479 15.8132 8.2386Z" fill="white"/>
<path d="M15.0648 19.9477C15.3616 20.9528 15.7359 22.5617 16.1691 24.4243C17.448 29.9246 18.6718 34.846 20.1008 37.9846C19.8979 37.9912 19.695 38 19.4907 38C15.0605 38 10.9879 36.4813 7.75586 33.9418C7.88347 28.5423 9.17856 20.9049 12.4408 15.2355C13.7059 16.1754 14.3869 17.654 15.0648 19.9477Z" fill="white"/>
</svg>
