<svg width="39" height="38" viewBox="0 0 39 38" fill="none" xmlns="http://www.w3.org/2000/svg">
<path fill-rule="evenodd" clip-rule="evenodd" d="M33.029 32.3032C32.4166 32.9308 31.7723 33.5059 31.1014 34.029C30.9388 34.1557 30.7032 34.0579 30.6726 33.8512C30.5346 32.9185 30.3254 32.0023 30.0465 31.1042L34.5976 22.4101C35.8512 21.8257 37.0604 21.1626 38.1829 20.3408C38.3237 20.2384 38.5165 20.354 38.4989 20.5297C38.0653 24.8319 36.242 29.0136 33.029 32.3032ZM28.8604 30.443C26.5251 30.8256 24.1926 31.1287 21.8304 31.1498C21.7333 31.1507 21.6432 31.0977 21.5946 31.0116L17.7759 24.2505C17.4716 23.7114 17.4621 23.0501 17.7492 22.5011C18.2751 21.4953 18.7978 20.4868 19.3167 19.4781C19.6469 18.8368 19.9729 18.1925 20.2978 17.5476C20.5285 17.0892 20.9702 16.7816 21.4711 16.7287L28.9289 15.9444C29.4338 15.8912 29.9268 16.128 30.2082 16.5604C31.1495 18.0067 32.0392 19.4849 32.827 21.0279C32.9965 21.3585 33.1633 21.6925 33.3311 22.0313L28.935 30.4281C28.9099 30.4338 28.8856 30.439 28.8604 30.443ZM20.5691 31.8395C19.8291 32.9044 19.0807 33.964 18.3159 35.0119C18.2194 35.1445 18.1183 35.2731 18.0134 35.4004C17.9519 35.4751 17.8557 35.5099 17.7617 35.4926L8.92667 33.8802C8.86308 33.8687 8.80555 33.8343 8.76464 33.7832C7.72707 32.4847 6.79261 31.1123 5.98733 29.6478C5.8025 29.3121 5.59895 28.9849 5.43177 28.6397C5.43751 28.5447 5.44218 28.4675 5.44792 28.3727L8.92597 22.7884C9.00465 22.8086 9.09245 22.8298 9.19193 22.857C11.418 23.4669 13.6834 23.9007 15.9647 24.2404C16.0977 24.2594 16.2088 24.2759 16.3036 24.2864C16.3247 24.3238 20.5346 31.7781 20.5691 31.8395ZM18.9283 37.9998C16.4477 37.9176 13.9797 37.3438 11.6778 36.2777C11.3887 36.1437 11.523 35.6974 11.8353 35.7544L17.7083 36.8258C17.7404 36.8385 17.7714 36.8509 17.8033 36.8634C17.8483 36.8917 17.8941 36.9187 17.9416 36.9434C18.3041 37.133 18.6716 37.309 19.0438 37.4714C19.3176 37.591 19.2258 38.0097 18.9283 37.9998ZM4.28607 27.2755C3.32285 26.6564 2.4341 25.9451 1.64486 25.1098C1.62381 25.0751 1.60346 25.0413 1.58254 25.0067C0.382825 21.5143 0.17998 17.7392 0.975549 14.1523C0.983624 14.1297 0.991566 14.1071 0.999622 14.0845C1.37643 13.3272 1.8042 12.5997 2.28716 11.9025C2.3912 11.7525 2.48975 11.5982 2.59393 11.4476C2.73024 11.4184 2.81313 11.4005 2.94944 11.3713L7.23394 13.9675C7.29554 14.0047 7.3332 14.0725 7.3332 14.1457C7.32138 16.6752 7.57228 19.1862 8.0716 21.661C8.07334 21.6724 8.07511 21.6788 8.0772 21.6891L4.64988 27.1922C4.57168 27.3176 4.40895 27.3551 4.28607 27.2755ZM14.9567 9.92553C14.9472 9.92844 14.9522 9.92716 14.9567 9.92553V9.92553ZM3.55598 9.73241C3.86087 8.90074 4.1605 8.06454 4.50539 7.24962C4.76668 6.63167 5.0641 6.03427 5.38817 5.4503C5.39835 5.4321 5.41051 5.41498 5.42431 5.39942C5.6338 5.1631 5.85067 4.92917 6.07397 4.70064C8.22966 2.49368 10.7775 0.926592 13.49 0C13.476 0.022382 13.4613 0.0459801 13.4478 0.0707561C13.4714 0.0887111 13.4827 0.103683 13.4962 0.107616C14.8201 0.57608 16.0285 1.25833 17.1687 2.06773C17.2401 2.1185 17.2702 2.21198 17.2428 2.29663L14.9548 9.25882C14.484 9.45815 14.0041 9.63736 13.5406 9.85333C11.6817 10.7185 9.86826 11.6742 8.15554 12.8129C8.06996 12.8699 7.96041 12.8727 7.87249 12.8194L3.47812 10.1572L3.47682 10.1547C3.48361 10.01 3.50781 9.86327 3.55598 9.73241ZM18.6817 2.47021C18.8027 2.44137 18.9245 2.4179 19.0472 2.40438C20.3858 2.26503 21.726 2.10723 23.068 2.02774C23.8894 1.98058 24.7151 1.95352 25.5506 2.01387L25.5523 2.01482L31.5424 8.92852C31.6053 9.00095 31.6262 9.10188 31.5977 9.19429C31.4037 9.82329 31.2114 10.4525 30.9851 11.068C30.5546 12.2326 30.0936 13.3851 29.6354 14.5398L29.6333 14.5415L20.7901 15.4715C20.6845 15.3284 20.5748 15.188 20.4595 15.0539C19.4151 13.8426 18.364 12.6391 17.3144 11.432C17.3241 11.4199 17.3334 11.4106 17.3431 11.3997C16.9588 11.0067 16.5734 10.6135 16.1889 10.2197C16.1655 10.1182 16.1473 10.0392 16.1239 9.93784L18.4871 2.65206C18.5166 2.56109 18.5903 2.492 18.6817 2.47021ZM26.705 1.20998C26.7208 1.0796 26.7329 0.948994 26.7424 0.818027C26.7557 0.62947 26.9484 0.512373 27.1179 0.587214C29.2654 1.53524 31.2775 2.90767 33.029 4.70064C34.4695 6.17687 35.6318 7.8318 36.5139 9.59679C36.6371 9.84316 36.364 10.1008 36.1337 9.95593C35.2297 9.38764 34.2814 8.90099 33.2961 8.48677C33.1184 8.41159 32.9364 8.34431 32.7517 8.2787C32.7084 8.26326 32.6693 8.23669 32.6387 8.20137L26.7702 1.42821C26.7185 1.36859 26.6953 1.28909 26.705 1.20998Z" fill="white"/>
</svg>
