<svg width="47" height="46" viewBox="0 0 47 46" fill="none" xmlns="http://www.w3.org/2000/svg">
<path d="M23.5915 45.9141C36.2525 45.9141 46.5162 35.7453 46.5162 23.2015C46.5162 10.6576 36.2525 0.488831 23.5915 0.488831C10.9305 0.488831 0.666748 10.6576 0.666748 23.2015C0.666748 35.7453 10.9305 45.9141 23.5915 45.9141Z" fill="#14154A"/>
<path d="M30.12 19H28V12.3333C28 11.6 27.4 11 26.6667 11H21.3334C20.6 11 20 11.6 20 12.3333V19H17.88C16.6934 19 16.0934 20.44 16.9334 21.28L23.0534 27.4C23.5734 27.92 24.4134 27.92 24.9334 27.4L31.0534 21.28C31.8934 20.44 31.3067 19 30.12 19ZM14.6667 32.3333C14.6667 33.0667 15.2667 33.6667 16 33.6667H32C32.7334 33.6667 33.3334 33.0667 33.3334 32.3333C33.3334 31.6 32.7334 31 32 31H16C15.2667 31 14.6667 31.6 14.6667 32.3333Z" fill="white"/>
</svg>
