<svg width="47" height="46" viewBox="0 0 47 46" fill="none" xmlns="http://www.w3.org/2000/svg">
<path d="M23.5915 45.9141C36.2525 45.9141 46.5162 35.7453 46.5162 23.2014C46.5162 10.6576 36.2525 0.4888 23.5915 0.4888C10.9305 0.4888 0.666748 10.6576 0.666748 23.2014C0.666748 35.7453 10.9305 45.9141 23.5915 45.9141Z" fill="#14154A"/>
<path d="M37.2352 23.2462C37.2352 16.0758 31.4107 10.263 24.2258 10.263C17.0408 10.263 11.2163 16.0758 11.2163 23.2462C11.2163 30.4166 17.0408 36.2294 24.2258 36.2294C31.4107 36.2294 37.2352 30.4166 37.2352 23.2462Z" fill="#14154A"/>
<path d="M38.3333 23.1785C38.3333 15.4592 32.0171 9.20148 24.2258 9.20148C16.4344 9.20148 10.1182 15.4592 10.1182 23.1785C10.1182 30.8978 16.4344 37.1555 24.2258 37.1555C32.0171 37.1555 38.3333 30.8978 38.3333 23.1785Z" stroke="white" stroke-width="3"/>
<path d="M17.1721 23.1784H31.2796" stroke="white" stroke-width="3"/>
<path d="M24.2258 16.19V30.167" stroke="white" stroke-width="3"/>
</svg>
