<svg width="47" height="46" viewBox="0 0 47 46" fill="none" xmlns="http://www.w3.org/2000/svg">
<path d="M23.5915 45.9141C36.2525 45.9141 46.5162 35.7453 46.5162 23.2014C46.5162 10.6576 36.2525 0.4888 23.5915 0.4888C10.9305 0.4888 0.666748 10.6576 0.666748 23.2014C0.666748 35.7453 10.9305 45.9141 23.5915 45.9141Z" fill="#14154A"/>
<path d="M28.9583 25.8333H27.8391L27.4425 25.4508C29.1425 23.4675 30.0208 20.7617 29.5391 17.8858C28.8733 13.9475 25.5866 10.8025 21.62 10.3208C15.6275 9.58417 10.5841 14.6275 11.3208 20.62C11.8025 24.5867 14.9475 27.8733 18.8858 28.5392C21.7616 29.0208 24.4675 28.1425 26.4508 26.4425L26.8333 26.8392V27.9583L32.8541 33.9792C33.435 34.56 34.3841 34.56 34.965 33.9792C35.5458 33.3983 35.5458 32.4492 34.965 31.8683L28.9583 25.8333ZM20.4583 25.8333C16.9308 25.8333 14.0833 22.9858 14.0833 19.4583C14.0833 15.9308 16.9308 13.0833 20.4583 13.0833C23.9858 13.0833 26.8333 15.9308 26.8333 19.4583C26.8333 22.9858 23.9858 25.8333 20.4583 25.8333Z" fill="white"/>
</svg>
