<svg width="184" height="45" viewBox="0 0 184 45" fill="none" xmlns="http://www.w3.org/2000/svg">
<path d="M10 11.8254H12.7107C18.3706 11.8254 22.9579 16.514 22.9579 22.2972C22.9579 28.0804 18.3699 32.769 12.7107 32.769H10V34.9984H31.6189V26.6464C29.7647 26.2163 28.3792 24.5243 28.3792 22.4992C28.3792 20.4741 29.7647 18.7829 31.6189 18.352V10H10V11.8238V11.8254Z" fill="#101828"/>
<path d="M52.1806 11.8253H54.8912V10.0015H33.2723V18.3535C35.1266 18.7836 36.512 20.4757 36.512 22.5007C36.512 24.5258 35.1266 26.217 33.2723 26.6479V34.9999H54.8912V32.7705H52.1806C46.5206 32.7705 41.9333 28.0819 41.9333 22.2987C41.9333 16.5155 46.5214 11.8269 52.1806 11.8269V11.8253Z" fill="#101828"/>
<path d="M81.7374 30.1515H81.3182L76.3792 17.8477L71.3961 30.1515H70.9769L64.8913 14.9814H67.0525L71.198 25.3451L75.3653 14.9814H77.4162L81.6053 25.3451L85.7066 14.9814H87.8453L81.7374 30.1515Z" fill="#101828"/>
<path d="M96.5967 14.7827C101.558 14.7827 104.689 18.311 104.689 22.5001C104.689 26.6892 101.646 30.2174 96.5525 30.2174C91.4591 30.2174 88.5262 26.5789 88.5262 22.5001C88.5262 18.4212 91.7232 14.7827 96.5961 14.7827H96.5967ZM96.5967 28.2331C99.9705 28.2331 102.462 25.7855 102.462 22.5001C102.462 19.2147 99.9705 16.767 96.5967 16.767C93.2229 16.767 90.7534 19.1929 90.7534 22.5001C90.7534 25.8073 93.2447 28.2331 96.5967 28.2331Z" fill="#101828"/>
<path d="M115.183 14.7827C120.144 14.7827 123.276 18.311 123.276 22.5001C123.276 26.6892 120.233 30.2174 115.139 30.2174C110.046 30.2174 107.113 26.5789 107.113 22.5001C107.113 18.4212 110.31 14.7827 115.183 14.7827ZM115.183 28.2331C118.557 28.2331 121.049 25.7855 121.049 22.5001C121.049 19.2147 118.557 16.767 115.183 16.767C111.809 16.767 109.34 19.1929 109.34 22.5001C109.34 25.8073 111.831 28.2331 115.183 28.2331Z" fill="#101828"/>
<path d="M133.769 14.7827C138.731 14.7827 141.862 18.311 141.862 22.5001C141.862 26.6892 138.819 30.2174 133.726 30.2174C128.632 30.2174 125.7 26.5789 125.7 22.5001C125.7 18.4212 128.897 14.7827 133.769 14.7827ZM133.769 28.2331C137.143 28.2331 139.635 25.7855 139.635 22.5001C139.635 19.2147 137.143 16.767 133.769 16.767C130.396 16.767 127.926 19.1929 127.926 22.5001C127.926 25.8073 130.417 28.2331 133.769 28.2331Z" fill="#101828"/>
<path d="M144.947 14.9814H149.313C152.554 14.9814 153.943 16.9215 153.943 18.818C153.943 20.3837 153.216 21.3977 151.65 22.0373V22.0816C153.899 22.5001 155.266 23.9774 155.266 26.0066C155.266 27.8588 153.877 30.0194 150.106 30.0194H144.947V14.9814H144.947ZM147.108 21.4201H148.541C150.68 21.4201 151.716 20.6266 151.716 19.0167C151.716 17.8919 151.077 16.9221 149.092 16.9221H147.108V21.4201ZM147.108 28.0787H149.82C152.355 28.0787 153.039 26.8219 153.039 25.6977C153.039 24.3306 151.981 23.3602 149.709 23.3602H147.108V28.0787Z" fill="#101828"/>
<path d="M171.405 30.0194H169.2L167.193 25.5874H160.799L158.903 30.0194H156.698L163.158 14.893H164.68L171.404 30.0194H171.405ZM161.637 23.6473H166.311L163.886 18.2008L161.637 23.6473Z" fill="#101828"/>
<path d="M173.34 16.6322C173.34 17.5824 172.574 18.3489 171.623 18.3489C170.672 18.3489 169.906 17.5824 169.906 16.6322C169.906 15.6819 170.673 14.9148 171.623 14.9148C172.573 14.9148 173.34 15.6813 173.34 16.6322ZM170.246 16.6322C170.246 17.3941 170.862 18.0136 171.623 18.0136C172.384 18.0136 173.006 17.3935 173.006 16.6322C173.006 15.8708 172.386 15.2547 171.623 15.2547C170.861 15.2547 170.246 15.8702 170.246 16.6322ZM171.977 17.5497L171.83 17.2511C171.766 17.1231 171.655 16.9669 171.582 16.8934C171.509 16.8199 171.444 16.8015 171.284 16.8015H171.215V17.5497H170.847V15.7273H171.747C172.137 15.7273 172.321 15.9478 172.321 16.2366C172.321 16.5254 172.137 16.7097 171.83 16.7458V16.755C171.985 16.8102 172.036 16.8607 172.22 17.1822L172.431 17.5491H171.977V17.5497ZM171.596 16.5122C171.848 16.5122 171.931 16.3881 171.931 16.2601C171.931 16.0993 171.803 16.0121 171.555 16.0121H171.215V16.5122H171.597H171.596Z" fill="#101828"/>
</svg>
