<svg width="24" height="25" viewBox="0 0 24 25" fill="none" xmlns="http://www.w3.org/2000/svg">
<path d="M20 2.49988H4C2.9 2.49988 2.01 3.39988 2.01 4.49988L2 22.4999L6 18.4999H20C21.1 18.4999 22 17.5999 22 16.4999V4.49988C22 3.39988 21.1 2.49988 20 2.49988ZM17 14.4999H7C6.45 14.4999 6 14.0499 6 13.4999C6 12.9499 6.45 12.4999 7 12.4999H17C17.55 12.4999 18 12.9499 18 13.4999C18 14.0499 17.55 14.4999 17 14.4999ZM17 11.4999H7C6.45 11.4999 6 11.0499 6 10.4999C6 9.94988 6.45 9.49988 7 9.49988H17C17.55 9.49988 18 9.94988 18 10.4999C18 11.0499 17.55 11.4999 17 11.4999ZM17 8.49988H7C6.45 8.49988 6 8.04988 6 7.49988C6 6.94988 6.45 6.49988 7 6.49988H17C17.55 6.49988 18 6.94988 18 7.49988C18 8.04988 17.55 8.49988 17 8.49988Z" fill="#141548"/>
</svg>
