<svg width="20" height="20" viewBox="0 0 20 20" fill="none" xmlns="http://www.w3.org/2000/svg">
<circle cx="10" cy="10" r="10" fill="white"/>
<path d="M9.18559 1.61554C8.95926 1.31573 8.9957 0.679822 9.02781 0.118855C9.02914 0.0946775 9.03048 0.071033 9.03181 0.0470108C9.34903 0.0167331 9.67014 0 9.99513 0C11.2406 0 12.4322 0.229322 13.532 0.645044C12.7474 1.0219 11.533 1.67053 10.1831 2.62893C9.72258 2.23277 9.37514 1.86704 9.18559 1.61554Z" fill="#F4501E"/>
<path d="M4.11596 7.32145C4.60907 7.37712 5.02496 7.45801 5.38063 7.57145C3.68039 10.5386 3.01747 14.2871 2.85525 17.0029C1.17085 15.2874 0.101143 12.9684 0 10.3998C1.16062 8.97378 2.69815 7.16067 4.11596 7.32145Z" fill="#F4501E"/>
<path d="M14.2237 4.7607C13.029 4.51224 11.9067 3.91126 11.0117 3.2769C12.8787 1.99174 14.4358 1.32477 14.7454 1.19781C16.6823 2.24434 18.2322 3.91175 19.1339 5.93209C17.9618 5.46536 16.6926 5.22789 15.4459 4.99652C15.0426 4.92166 14.6257 4.84429 14.2237 4.7607Z" fill="#F4501E"/>
<path d="M7.30866 5.05141C7.20211 5.15852 7.09578 5.26746 6.99011 5.37846C6.60039 5.7874 6.24678 6.23465 5.9225 6.70788C5.45025 6.52966 4.89429 6.40322 4.2288 6.32811C2.66078 6.15078 1.26651 7.39233 0.0698242 8.75911C0.326399 6.68711 1.21551 4.81173 2.54031 3.33276C3.26344 3.41986 4.06962 3.56744 4.8913 3.81251C5.43032 3.97342 6.28873 4.41062 7.30866 5.05141Z" fill="#F4501E"/>
<path d="M8.625 10.2156C8.21467 8.82648 7.73935 7.82503 6.81836 7.17492C7.0948 6.77837 7.39224 6.40625 7.71435 6.0681C7.86346 5.91164 8.01412 5.76055 8.16556 5.61212C11.8603 8.12581 16.9213 12.7433 17.3816 16.744C15.8454 18.424 13.7429 19.5761 11.3762 19.903C10.5144 18.1881 9.70332 14.7019 9.22122 12.6286C8.98955 11.6327 8.78967 10.7728 8.625 10.2156Z" fill="#F4501E"/>
<path d="M12.8144 8.01281C11.5261 6.82626 10.1657 5.76226 8.92139 4.90713C9.33616 4.54034 9.75215 4.20224 10.1606 3.89215C11.1941 4.66868 12.5473 5.43352 14.0202 5.73972C14.4328 5.82552 14.8551 5.90394 15.2635 5.97972C16.8368 6.27175 18.3473 6.55459 19.6174 7.26293C19.8647 8.13315 20 9.0507 20 10.0003C20 12.1243 19.3354 14.0924 18.2056 15.7119C17.4736 12.8154 14.9631 9.99181 12.8144 8.01281Z" fill="#F4501E"/>
<path d="M8.05943 4.33605C6.86922 3.57759 5.84301 3.05317 5.17724 2.85454C4.57936 2.67607 3.99288 2.54608 3.4375 2.45129C4.72087 1.33661 6.28964 0.542151 8.02143 0.195862C7.9831 0.89425 7.96632 1.66101 8.38665 2.21808C8.58631 2.48263 8.92419 2.84545 9.36385 3.23907C8.9333 3.57404 8.49576 3.9393 8.05943 4.33605Z" fill="#F4501E"/>
<path d="M7.66564 10.4988C7.82186 11.0278 8.01886 11.8746 8.24686 12.8549C8.91996 15.7498 9.56406 18.34 10.3162 19.9919C10.2094 19.9953 10.1026 20 9.99505 20C7.66342 20 5.5199 19.2007 3.81885 17.8641C3.88601 15.0222 4.56764 11.0026 6.28458 8.01868C6.95043 8.51334 7.30887 9.29156 7.66564 10.4988Z" fill="#F4501E"/>
</svg>
