<svg width="26" height="25" viewBox="0 0 26 25" fill="none" xmlns="http://www.w3.org/2000/svg">
<path d="M11.982 2.01894C11.6991 1.64418 11.7446 0.849289 11.7848 0.148081C11.7864 0.117859 11.7881 0.088303 11.7898 0.0582752C12.1863 0.020428 12.5877 -0.000488281 12.9939 -0.000488281C14.5507 -0.000488281 16.0403 0.286164 17.415 0.805816C16.4343 1.27689 14.9163 2.08768 13.2289 3.28568C12.6532 2.79047 12.2189 2.33332 11.982 2.01894Z" fill="white"/>
<path d="M5.64495 9.1514C6.26134 9.22098 6.7812 9.3221 7.22579 9.4639C5.10048 13.1728 4.27184 17.8585 4.06906 21.2532C1.96356 19.1089 0.626429 16.2101 0.5 12.9993C1.95077 11.2168 3.87269 8.95043 5.64495 9.1514Z" fill="white"/>
<path d="M18.2797 5.95044C16.7864 5.63985 15.3835 4.88863 14.2648 4.09569C16.5985 2.48923 18.5449 1.65552 18.9319 1.49683C21.353 2.80498 23.2903 4.88924 24.4176 7.41467C22.9524 6.83125 21.3659 6.53442 19.8075 6.24521C19.3033 6.15163 18.7822 6.05492 18.2797 5.95044Z" fill="white"/>
<path d="M9.6357 6.31383C9.50251 6.44772 9.3696 6.5839 9.23752 6.72265C8.75037 7.23382 8.30835 7.79289 7.90301 8.38443C7.31269 8.16165 6.61774 8.00359 5.78588 7.90971C3.82585 7.68805 2.08301 9.23998 0.587158 10.9485C0.907876 8.35846 2.01926 6.01423 3.67527 4.16553C4.57917 4.2744 5.5869 4.45887 6.61401 4.76521C7.28778 4.96635 8.36079 5.51285 9.6357 6.31383Z" fill="white"/>
<path d="M11.2811 12.769C10.7682 11.0326 10.1741 9.78079 9.02283 8.96815C9.36838 8.47245 9.74018 8.00731 10.1428 7.58462C10.3292 7.38905 10.5175 7.20019 10.7068 7.01465C15.3252 10.1568 21.6515 15.9286 22.2268 20.9295C20.3066 23.0295 17.6785 24.4697 14.7201 24.8783C13.6429 22.7347 12.629 18.3769 12.0264 15.7852C11.7368 14.5404 11.487 13.4655 11.2811 12.769Z" fill="white"/>
<path d="M16.5182 10.0156C14.9078 8.53238 13.2073 7.20238 11.6519 6.13347C12.1703 5.67498 12.6903 5.25236 13.2009 4.86475C14.4928 5.83541 16.1843 6.79145 18.0254 7.1742C18.5411 7.28145 19.069 7.37948 19.5795 7.4742C21.5462 7.83924 23.4342 8.1928 25.0218 9.07822C25.331 10.166 25.5001 11.3129 25.5001 12.4999C25.5001 15.1549 24.6693 17.615 23.2571 19.6395C22.3421 16.0188 19.204 12.4893 16.5182 10.0156Z" fill="white"/>
<path d="M10.5745 5.41962C9.08677 4.47155 7.80401 3.81602 6.9718 3.56773C6.22445 3.34465 5.49135 3.18216 4.79712 3.06367C6.40133 1.67031 8.36229 0.677246 10.527 0.244385C10.4791 1.11737 10.4581 2.07581 10.9836 2.77216C11.2331 3.10284 11.6555 3.55637 12.2051 4.0484C11.6669 4.4671 11.1199 4.92369 10.5745 5.41962Z" fill="white"/>
<path d="M10.0822 13.1231C10.2774 13.7843 10.5237 14.8428 10.8087 16.0682C11.6501 19.6868 12.4552 22.9246 13.3953 24.9895C13.2619 24.9938 13.1284 24.9996 12.9939 24.9996C10.0794 24.9996 7.4 24.0004 5.27368 22.3297C5.35764 18.7774 6.20967 13.7528 8.35585 10.0229C9.18816 10.6413 9.63621 11.6141 10.0822 13.1231Z" fill="white"/>
</svg>
