<svg width="26" height="27" viewBox="0 0 26 27" fill="none" xmlns="http://www.w3.org/2000/svg">
<path fill-rule="evenodd" clip-rule="evenodd" d="M22.2567 22.6021C21.8377 23.0315 21.3968 23.425 20.9378 23.7829C20.8265 23.8696 20.6653 23.8027 20.6444 23.6612C20.55 23.023 20.4069 22.3962 20.216 21.7817L23.3299 15.8331C24.1877 15.4332 25.015 14.9795 25.783 14.4173C25.8794 14.3472 26.0113 14.4263 25.9992 14.5465C25.7026 17.4901 24.4551 20.3513 22.2567 22.6021ZM19.4045 21.3293C17.8066 21.5911 16.2107 21.7984 14.5945 21.8129C14.528 21.8135 14.4664 21.7772 14.4331 21.7184L11.8204 17.0923C11.6121 16.7235 11.6056 16.271 11.8021 15.8954C12.1619 15.2072 12.5195 14.5171 12.8746 13.827C13.1005 13.3882 13.3236 12.9474 13.5459 12.5062C13.7037 12.1925 14.0059 11.982 14.3486 11.9459L19.4514 11.4092C19.7968 11.3728 20.1341 11.5348 20.3267 11.8307C20.9707 12.8202 21.5795 13.8316 22.1185 14.8874C22.2344 15.1136 22.3486 15.3421 22.4634 15.5739L19.4555 21.3191C19.4384 21.323 19.4217 21.3265 19.4045 21.3293ZM13.7315 22.2848C13.2252 23.0134 12.7131 23.7384 12.1898 24.4554C12.1238 24.5461 12.0546 24.6341 11.9829 24.7212C11.9408 24.7723 11.875 24.7961 11.8106 24.7843L5.76562 23.6811C5.72211 23.6732 5.68274 23.6496 5.65475 23.6147C4.94484 22.7262 4.30547 21.7873 3.75449 20.7852C3.62803 20.5555 3.48876 20.3316 3.37437 20.0954C3.3783 20.0304 3.38149 19.9777 3.38542 19.9128L5.76514 16.092C5.81897 16.1057 5.87904 16.1203 5.94711 16.1389C7.47022 16.5562 9.0202 16.853 10.5811 17.0854C10.6721 17.0984 10.7481 17.1097 10.813 17.1169C10.8274 17.1425 13.7079 22.2428 13.7315 22.2848ZM12.6088 26.4998C10.9116 26.4435 9.22298 26.0509 7.64795 25.3214C7.45013 25.2298 7.54204 24.9244 7.7557 24.9634L11.7741 25.6965C11.7961 25.7052 11.8173 25.7137 11.8391 25.7222C11.8699 25.7416 11.9012 25.7601 11.9337 25.777C12.1818 25.9067 12.4332 26.0271 12.6879 26.1382C12.8752 26.22 12.8124 26.5065 12.6088 26.4998ZM2.59047 19.162C1.93142 18.7385 1.32333 18.2518 0.783327 17.6803C0.768923 17.6565 0.755 17.6334 0.740687 17.6097C-0.0801724 15.2202 -0.218961 12.6372 0.325375 10.1831C0.3309 10.1676 0.336334 10.1521 0.341846 10.1367C0.599663 9.61847 0.892345 9.12075 1.22279 8.64369C1.29398 8.54107 1.36141 8.43548 1.43269 8.33243C1.52595 8.31245 1.58267 8.30025 1.67593 8.28026L4.60743 10.0566C4.64958 10.0821 4.67535 10.1285 4.67535 10.1785C4.66726 11.9092 4.83893 13.6273 5.18057 15.3205C5.18176 15.3283 5.18297 15.3328 5.1844 15.3398L2.83939 19.1051C2.78589 19.1909 2.67454 19.2165 2.59047 19.162ZM9.89144 7.29103C9.88494 7.29302 9.88832 7.29215 9.89144 7.29103V7.29103ZM2.09093 7.1589C2.29954 6.58986 2.50455 6.01772 2.74053 5.46015C2.91931 5.03733 3.12281 4.62859 3.34454 4.22903C3.3515 4.21658 3.35982 4.20487 3.36926 4.19422C3.5126 4.03253 3.66098 3.87247 3.81377 3.71611C5.28871 2.20608 7.03195 1.13386 8.88789 0.499878C8.87829 0.515192 8.86829 0.531338 8.85901 0.54829C8.87517 0.560575 8.88293 0.570819 8.89213 0.57351C9.79797 0.894038 10.6248 1.36084 11.4049 1.91464C11.4538 1.94938 11.4743 2.01334 11.4556 2.07125L9.89014 6.83486C9.568 6.97124 9.23962 7.09386 8.92253 7.24163C7.65067 7.8336 6.40986 8.4875 5.238 9.26663C5.17945 9.30562 5.10449 9.3075 5.04434 9.27106L2.03766 7.44952L2.03677 7.4478C2.04142 7.34885 2.05798 7.24843 2.09093 7.1589ZM12.4401 2.19002C12.5229 2.17029 12.6062 2.15423 12.6902 2.14498C13.6061 2.04963 14.5231 1.94167 15.4413 1.88728C16.0033 1.85501 16.5682 1.8365 17.1399 1.87779L17.141 1.87844L21.2395 6.60887C21.2826 6.65842 21.2969 6.72748 21.2774 6.79071C21.1446 7.22108 21.0131 7.6516 20.8582 8.07269C20.5637 8.86953 20.2483 9.65812 19.9347 10.4481L19.9333 10.4493L13.8827 11.0857C13.8104 10.9878 13.7354 10.8917 13.6565 10.7999C12.9419 9.97116 12.2227 9.14769 11.5046 8.32179C11.5112 8.31352 11.5176 8.30712 11.5242 8.29967C11.2613 8.03076 10.9976 7.76176 10.7345 7.49228C10.7185 7.42282 10.706 7.36883 10.69 7.29945L12.307 2.31445C12.3271 2.2522 12.3776 2.20493 12.4401 2.19002ZM17.9297 1.32776C17.9405 1.23855 17.9488 1.14919 17.9553 1.05958C17.9644 0.930568 18.0963 0.850449 18.2122 0.901656C19.6816 1.5503 21.0583 2.48933 22.2567 3.71611C23.2423 4.72615 24.0375 5.85848 24.6411 7.0661C24.7254 7.23467 24.5385 7.41094 24.381 7.31183C23.7624 6.923 23.1136 6.59003 22.4394 6.30662C22.3179 6.25518 22.1933 6.20914 22.067 6.16425C22.0373 6.15369 22.0106 6.13551 21.9896 6.11134L17.9743 1.47708C17.939 1.43628 17.9231 1.38189 17.9297 1.32776Z" fill="white"/>
</svg>
