<svg width="20" height="20" viewBox="0 0 20 20" fill="none" xmlns="http://www.w3.org/2000/svg">
<path fill-rule="evenodd" clip-rule="evenodd" d="M17.1205 17.0017C16.7982 17.332 16.4591 17.6347 16.106 17.91C16.0204 17.9767 15.8964 17.9252 15.8803 17.8164C15.8077 17.3255 15.6976 16.8433 15.5508 16.3706L17.9461 11.7948C18.6059 11.4872 19.2423 11.1382 19.8331 10.7057C19.9072 10.6518 20.0087 10.7126 19.9994 10.8051C19.7712 13.0694 18.8116 15.2703 17.1205 17.0017ZM14.9265 16.0226C13.6974 16.224 12.4698 16.3835 11.2265 16.3946C11.1754 16.3951 11.128 16.3672 11.1024 16.3219L9.0926 12.7634C8.9324 12.4797 8.9274 12.1316 9.0785 11.8427C9.3553 11.3133 9.6304 10.7825 9.9035 10.2516C10.0773 9.91411 10.2489 9.575 10.4199 9.23561C10.5413 8.9943 10.7738 8.8324 11.0374 8.8046L14.9626 8.3918C15.2283 8.3638 15.4878 8.4884 15.6359 8.716C16.1313 9.4772 16.5996 10.2552 17.0142 11.0673C17.1034 11.2413 17.1912 11.4171 17.2795 11.5954L14.9658 16.0148C14.9526 16.0178 14.9398 16.0205 14.9265 16.0226ZM10.5627 16.7576C10.1732 17.3181 9.7793 17.8758 9.3768 18.4273C9.326 18.4971 9.2728 18.5648 9.2176 18.6318C9.1852 18.6711 9.1346 18.6894 9.0851 18.6803L4.43509 17.8317C4.40162 17.8256 4.37134 17.8075 4.34981 17.7806C3.80372 17.0972 3.3119 16.3749 2.88807 15.6041C2.79079 15.4274 2.68366 15.2552 2.59567 15.0735C2.59869 15.0235 2.60115 14.9829 2.60417 14.933L4.43472 11.9939C4.47613 12.0045 4.52234 12.0157 4.5747 12.03C5.74632 12.351 6.93861 12.5793 8.1393 12.7581C8.2093 12.7681 8.2678 12.7768 8.3177 12.7823C8.3288 12.802 10.5445 16.7253 10.5627 16.7576ZM9.6991 19.9999C8.3935 19.9566 7.0946 19.6546 5.88304 19.0935C5.73087 19.023 5.80157 18.7881 5.96592 18.8181L9.057 19.382C9.0739 19.3887 9.0902 19.3952 9.107 19.4018C9.1307 19.4167 9.1548 19.4309 9.1798 19.4439C9.3706 19.5437 9.564 19.6363 9.7599 19.7218C9.904 19.7847 9.8557 20.0051 9.6991 19.9999ZM1.99267 14.3555C1.48571 14.0297 1.01795 13.6553 0.602559 13.2157C0.591479 13.1974 0.580769 13.1796 0.569759 13.1614C-0.0616711 11.3233 -0.168431 9.3364 0.250289 7.4486C0.254539 7.4367 0.258719 7.4248 0.262959 7.4129C0.461279 7.0143 0.686419 6.63144 0.940609 6.26447C0.995369 6.18553 1.04724 6.10431 1.10207 6.02504C1.17381 6.00967 1.21744 6.00028 1.28918 5.98491L3.54418 7.3513C3.5766 7.3709 3.59642 7.4066 3.59642 7.4451C3.5902 8.7764 3.72225 10.098 3.98505 11.4005C3.98597 11.4065 3.9869 11.4099 3.988 11.4153L2.18415 14.3117C2.14299 14.3777 2.05734 14.3974 1.99267 14.3555ZM7.6088 5.22396C7.6038 5.22549 7.6064 5.22482 7.6088 5.22396V5.22396ZM1.60841 5.12232C1.76888 4.6846 1.92658 4.24449 2.1081 3.81559C2.24562 3.49035 2.40216 3.17593 2.57272 2.86858C2.57808 2.859 2.58448 2.84999 2.59174 2.8418C2.702 2.71742 2.81614 2.5943 2.93367 2.47402C4.06824 1.31246 5.40919 0.48768 6.83684 0C6.82945 0.01178 6.82176 0.0242 6.81462 0.03724C6.82705 0.0466901 6.83302 0.0545699 6.8401 0.0566399C7.5369 0.3032 8.1729 0.66228 8.773 1.08828C8.8106 1.115 8.8264 1.1642 8.812 1.20875L7.6078 4.87306C7.36 4.97797 7.1074 5.07229 6.86348 5.18596C5.88513 5.64132 4.93066 6.14432 4.02923 6.74365C3.98419 6.77364 3.92653 6.77509 3.88026 6.74706L1.56743 5.34588L1.56675 5.34455C1.57032 5.26844 1.58306 5.19119 1.60841 5.12232ZM9.5693 1.30011C9.633 1.28493 9.6971 1.27258 9.7617 1.26546C10.4662 1.19212 11.1716 1.10907 11.8779 1.06723C12.3102 1.04241 12.7448 1.02817 13.1845 1.05993L13.1854 1.06043L16.3381 4.69922C16.3712 4.73734 16.3822 4.79046 16.3672 4.8391C16.2651 5.17015 16.1639 5.50132 16.0448 5.82524C15.8182 6.43819 15.5756 7.0448 15.3344 7.6525L15.3333 7.6534L10.679 8.1429C10.6234 8.0676 10.5657 7.9937 10.505 7.9231C9.9553 7.2856 9.4021 6.65216 8.8497 6.01685C8.8548 6.01049 8.8597 6.00557 8.8648 5.99984C8.6625 5.79298 8.4597 5.58606 8.2573 5.37877C8.245 5.32534 8.2354 5.28381 8.2231 5.23044L9.4669 1.39582C9.4824 1.34794 9.5212 1.31158 9.5693 1.30011ZM13.7921 0.63683C13.8004 0.56821 13.8068 0.49947 13.8118 0.43054C13.8188 0.3313 13.9202 0.26967 14.0094 0.30906C15.1397 0.80802 16.1987 1.53035 17.1205 2.47402C17.8787 3.25098 18.4904 4.122 18.9547 5.05094C19.0195 5.18061 18.8758 5.3162 18.7546 5.23996C18.2788 4.94086 17.7797 4.68473 17.2611 4.46672C17.1676 4.42715 17.0718 4.39174 16.9746 4.35721C16.9518 4.34908 16.9312 4.3351 16.9151 4.31651L13.8264 0.75169C13.7992 0.72031 13.787 0.67847 13.7921 0.63683Z" fill="#1EBB67"/>
</svg>
