<?xml version="1.0" encoding="UTF-8"?><svg id="a" xmlns="http://www.w3.org/2000/svg" xmlns:xlink="http://www.w3.org/1999/xlink" viewBox="0 0 1080 1920"><defs><style>.e,.f,.g{fill:none;}.f{stroke-width:18px;}.f,.g{stroke:#fff;stroke-miterlimit:10;}.g{stroke-width:25px;}.h{fill:#f27507;}.i{clip-path:url(#d);}.j{clip-path:url(#c);}</style><clipPath id="b"><rect class="e" x="-2105.5" y="-1572.5" width="2555" height="1437"/></clipPath><clipPath id="c"><rect class="e" x="-2105.5" y="-19.5" width="1944.25" height="1093.5"/></clipPath><clipPath id="d"><rect class="e" x="-433.5" y="417.5" width="1944.25" height="1093.5" transform="translate(1502.88 425.62) rotate(90)"/></clipPath></defs><rect class="h" x="-468.99" y="428.3" width="2023" height="1126.4" transform="translate(1534.01 448.99) rotate(90)"/><g class="j"><rect class="g" x="-302.21" y="-358.95" width="759.04" height="443.21" transform="translate(89.37 -294.49) rotate(155.02)"/><path class="g" d="M-496.74,138.3c-166.93-358.29-1.61-788.82,369.25-961.6,9.82-4.57,19.69-8.91,29.59-13.03l219.7-102.36L726.16,358.49l-250.92,116.91-.15-.32c-370.44,171.37-805.19,20.9-971.83-336.77Z"/></g><g class="i"><circle class="f" cx="383.63" cy="415.79" r="221.96"/><circle class="f" cx="712.32" cy="1123.45" r="221.96"/><rect class="f" x="-156.01" y="-149.51" width="759.04" height="443.21" transform="translate(194.47 -160.95) rotate(65.02)"/><path class="f" d="M485.68,652.41C843.98,485.48,994.36,49.52,821.57-321.34c-4.57-9.82-9.34-19.48-14.27-29.01l-102.36-219.7L-592.24,34.31l116.91,250.92.32-.15c173.38,369.51,603.02,533.97,960.7,367.33Z"/><line class="f" x1="1582.07" y1="720.85" x2="-170.64" y2="1537.44"/><circle class="f" cx="1043.1" cy="1831.24" r="221.96"/><rect class="f" x="823.71" y="1953.32" width="759.04" height="443.21" transform="translate(-260.09 4184.1) rotate(-114.98)"/><path class="f" d="M927.58,1600.88c358.29-166.93,788.82-1.61,961.6,369.25,4.57,9.82,8.91,19.69,13.03,29.59l102.36,219.7-1297.18,604.36-116.91-250.92.32-.15c-171.37-370.44-20.9-805.19,336.77-971.83Z"/></g></svg>