<?xml version="1.0" encoding="UTF-8"?><svg id="a" xmlns="http://www.w3.org/2000/svg" xmlns:xlink="http://www.w3.org/1999/xlink" viewBox="0 0 2560 1440"><defs><style>.f,.g,.h,.i{fill:none;}.g{stroke-width:18px;}.g,.h,.i{stroke:#fff;stroke-miterlimit:10;}.h{stroke-width:26px;}.i{stroke-width:25px;}.j{fill:#f27507;}.k{clip-path:url(#e);}.l{clip-path:url(#d);}.m{clip-path:url(#c);}.n{clip-path:url(#b);}</style><clipPath id="b"><rect class="f" x="-.5" y=".5" width="2555" height="1437"/></clipPath><clipPath id="c"><rect class="f" x="-.5" y="1553.5" width="1944.25" height="1093.5"/></clipPath><clipPath id="d"><rect class="f" x="1671.5" y="1990.5" width="1944.25" height="1093.5" transform="translate(5180.88 -106.38) rotate(90)"/></clipPath><clipPath id="e"><rect class="f" x="13.5" y="-1729" width="3837.5" height="1590.5"/></clipPath></defs><rect class="j" x="-40" y="-21.78" width="2634" height="1485.56"/><g class="n"><circle class="i" cx="556.25" cy="922.68" r="291.68"/><circle class="i" cx="1486.21" cy="490.74" r="291.68"/><rect class="i" x="-394.14" y="841.89" width="997.47" height="582.44" transform="translate(-468.75 150.18) rotate(-24.98)"/><path class="i" d="M867.21,788.57C647.84,317.73,74.92,120.11-412.44,347.17c-12.9,6.01-25.6,12.27-38.13,18.75l-288.71,134.51L54.93,2205.1l329.74-153.63-.2-.42c485.58-227.84,701.71-792.45,482.72-1262.48Z"/><line class="i" x1="957.14" y1="-652.22" x2="2030.25" y2="1651.06"/><circle class="i" cx="2416.33" cy="56.06" r="291.68"/><rect class="i" x="2369.25" y="-445.59" width="997.47" height="582.44" transform="translate(5402.48 -1505.49) rotate(155.02)"/><path class="i" d="M2113.62,207.87c-219.37-470.84-2.12-1036.61,485.24-1263.67,12.9-6.01,25.87-11.71,38.88-17.13l288.71-134.51,794.21,1704.67-329.74,153.63-.2-.42c-486.81,225.2-1058.12,27.46-1277.11-442.57Z"/></g><g class="m"><line class="i" x1="728.23" y1="1056.81" x2="1544.82" y2="2809.51"/><circle class="i" cx="1838.61" cy="1595.78" r="221.96"/><rect class="i" x="1802.79" y="1214.05" width="759.04" height="443.21" transform="translate(4766.75 1815.37) rotate(155.02)"/><path class="i" d="M1608.26,1711.3c-166.93-358.29-1.61-788.82,369.25-961.6,9.82-4.57,19.69-8.91,29.59-13.03l219.7-102.36,604.36,1297.18-250.92,116.91-.15-.32c-370.44,171.37-805.19,20.9-971.83-336.77Z"/></g><g class="l"><rect class="g" x="1948.99" y="1423.49" width="759.04" height="443.21" transform="translate(2836.33 -1160.33) rotate(65.02)"/><path class="g" d="M2590.68,2225.41c358.29-166.93,508.68-602.9,335.89-973.76-4.57-9.82-9.34-19.48-14.27-29.01l-102.36-219.7-1297.18,604.36,116.91,250.92.32-.15c173.38,369.51,603.02,533.97,960.7,367.33Z"/></g><g class="k"><rect class="h" x="-98.19" y="-464.73" width="1104.02" height="644.65" transform="translate(102.6 178.33) rotate(-24.98)"/><path class="h" d="M1297.89-523.74c-242.8-521.14-876.92-739.87-1416.33-488.55-14.28,6.65-28.34,13.59-42.2,20.76l-319.55,148.88L398.86,1044.1l364.97-170.04-.22-.47C1301.06,621.42,1540.28-3.51,1297.89-523.74Z"/><line class="h" x1="1397.43" y1="-2118.44" x2="2585.17" y2="430.88"/></g></svg>