<?xml version="1.0" encoding="UTF-8"?><svg id="a" xmlns="http://www.w3.org/2000/svg" xmlns:xlink="http://www.w3.org/1999/xlink" viewBox="0 0 3840 1600"><defs><style>.f,.g,.h,.i{fill:none;}.g{stroke-width:27.67px;}.g,.h,.i{stroke:#fff;stroke-miterlimit:10;}.h{stroke-width:26px;}.i{stroke-width:25px;}.j{fill:#f27507;}.k{clip-path:url(#e);}.l{clip-path:url(#d);}.m{clip-path:url(#c);}</style><clipPath id="b"><rect class="f" x="4240.5" y="1733.5" width="2555" height="1437"/></clipPath><clipPath id="c"><rect class="f" x="4254.5" y="1" width="3837.5" height="1590.5"/></clipPath><clipPath id="d"><rect class="f" x="-16.5" y="1733.5" width="2555" height="1437"/></clipPath><clipPath id="e"><rect class="f" x="-2.5" y="1" width="3837.5" height="1590.5"/></clipPath></defs><g class="m"><path class="g" d="M5538.89,1206.26c-242.8-521.14-876.92-739.87-1416.33-488.55-14.28,6.65-28.34,13.59-42.2,20.76l-319.55,148.88,879.05,1886.76,364.97-170.04-.22-.47c537.45-252.18,776.67-877.1,534.29-1397.34Z"/></g><rect class="j" x="-44" y="-18.32" width="3930" height="1636.65"/><g class="l"><line class="i" x1="941.14" y1="1080.78" x2="2014.25" y2="3384.06"/><circle class="i" cx="2400.33" cy="1789.06" r="291.68"/><rect class="i" x="2353.25" y="1287.41" width="997.47" height="582.44" transform="translate(6103.85 1805.14) rotate(155.02)"/><path class="i" d="M2097.62,1940.87c-219.37-470.84-2.12-1036.61,485.24-1263.67,12.9-6.01,25.87-11.71,38.88-17.13l288.71-134.51,794.21,1704.67-329.74,153.63-.2-.42c-486.81,225.2-1058.12,27.46-1277.11-442.57Z"/></g><g class="k"><circle class="h" cx="937.72" cy="1354.69" r="322.84"/><circle class="h" cx="1967.02" cy="876.61" r="322.84"/><rect class="h" x="-114.19" y="1265.27" width="1104.02" height="644.65" transform="translate(-629.51 333.42) rotate(-24.98)"/><path class="h" d="M1281.89,1206.26C1039.09,685.12,404.98,466.38-134.44,717.7c-14.28,6.65-28.34,13.59-42.2,20.76l-319.55,148.88,879.05,1886.76,364.97-170.04-.22-.47c537.45-252.18,776.67-877.1,534.29-1397.34Z"/><line class="h" x1="1381.43" y1="-388.44" x2="2569.17" y2="2160.88"/><circle class="h" cx="2996.5" cy="395.5" r="322.84"/><rect class="h" x="2944.39" y="-159.74" width="1104.02" height="644.65" transform="translate(6734.37 -1166.62) rotate(155.02)"/><path class="h" d="M2661.45,563.52c-242.8-521.14-2.34-1147.34,537.08-1398.66,14.28-6.65,28.63-12.96,43.04-18.96l319.55-148.88,879.05,1886.76-364.97,170.04-.22-.47c-538.81,249.26-1171.15,30.4-1413.53-489.84Z"/></g></svg>