<?xml version="1.0" encoding="UTF-8"?><svg id="a" xmlns="http://www.w3.org/2000/svg" xmlns:xlink="http://www.w3.org/1999/xlink" viewBox="0 0 1920 1080"><defs><style>.e,.f,.g{fill:none;}.f{stroke-width:18px;}.f,.g{stroke:#fff;stroke-miterlimit:10;}.g{stroke-width:25px;}.h{fill:#f27507;}.i{clip-path:url(#d);}.j{clip-path:url(#c);}.k{clip-path:url(#b);}</style><clipPath id="b"><rect class="e" x="-13.5" y="-1563.5" width="2555" height="1437"/></clipPath><clipPath id="c"><rect class="e" x="-13.5" y="-10.5" width="1944.25" height="1093.5"/></clipPath><clipPath id="d"><rect class="e" x="1658.5" y="426.5" width="1944.25" height="1093.5" transform="translate(3603.88 -1657.38) rotate(90)"/></clipPath></defs><rect class="h" x="-53" y="-24.4" width="2023" height="1126.4"/><g class="k"><rect class="g" x="-407.14" y="-722.11" width="997.47" height="582.44" transform="translate(190.54 -1.63) rotate(-24.98)"/><path class="g" d="M854.21-775.43c-219.37-470.84-792.28-668.47-1279.64-441.4-12.9,6.01-25.6,12.27-38.13,18.75l-288.71,134.51L41.93,641.1l329.74-153.63-.2-.42c485.58-227.84,701.71-792.45,482.72-1262.48Z"/><line class="g" x1="944.14" y1="-2216.22" x2="2017.25" y2="87.06"/></g><g class="j"><circle class="g" cx="410.17" cy="691.24" r="221.96"/><circle class="g" cx="1117.83" cy="362.55" r="221.96"/><rect class="g" x="-313.05" y="629.76" width="759.04" height="443.21" transform="translate(-353.33 107.72) rotate(-24.98)"/><path class="g" d="M646.79,589.19C479.86,230.9,43.89,80.52-326.97,253.3c-9.82,4.57-19.48,9.34-29.01,14.27l-219.7,102.36L28.68,1667.12l250.92-116.91-.15-.32c369.51-173.38,533.97-603.02,367.33-960.7Z"/><line class="g" x1="715.23" y1="-507.19" x2="1531.82" y2="1245.51"/><circle class="g" cx="1825.61" cy="31.78" r="221.96"/><rect class="g" x="1789.79" y="-349.95" width="759.04" height="443.21" transform="translate(4081.46 -1160.82) rotate(155.02)"/><path class="g" d="M1595.26,147.3c-166.93-358.29-1.61-788.82,369.25-961.6,9.82-4.57,19.69-8.91,29.59-13.03l219.7-102.36,604.36,1297.18-250.92,116.91-.15-.32c-370.44,171.37-805.19,20.9-971.83-336.77Z"/></g><g class="i"><path class="f" d="M2577.68,661.41c358.29-166.93,508.68-602.9,335.89-973.76-4.57-9.82-9.34-19.48-14.27-29.01l-102.36-219.7L1499.76,43.31l116.91,250.92.32-.15c173.38,369.51,603.02,533.97,960.7,367.33Z"/><line class="f" x1="3674.07" y1="729.85" x2="1921.36" y2="1546.44"/></g></svg>