<?xml version="1.0" encoding="UTF-8"?><svg id="a" xmlns="http://www.w3.org/2000/svg" xmlns:xlink="http://www.w3.org/1999/xlink" viewBox="0 0 2560 1440"><defs><style>.f,.g{fill:none;}.g{stroke:#fff;stroke-miterlimit:10;stroke-width:20px;}.h{fill:#298024;}.i{clip-path:url(#d);}.j{clip-path:url(#c);}.k{clip-path:url(#b);}</style><clipPath id="b"><rect class="f" x="-.5" y=".5" width="2555" height="1437"/></clipPath><clipPath id="c"><rect class="f" x="-.5" y="1550.5" width="1944.25" height="1093.5"/></clipPath><clipPath id="d"><rect class="f" x="13.5" y="-1732" width="3837.5" height="1590.5"/></clipPath><clipPath id="e"><rect class="f" x="-4243.5" y="-1732" width="3837.5" height="1590.5"/></clipPath></defs><rect class="h" x="-40" y="-21.78" width="2634" height="1485.56"/><g class="k"><rect class="g" x="404.92" y="358.84" width="552.96" height="1345.66" transform="translate(-371.94 384.28) rotate(-24.98)"/><rect class="g" x="422.37" y="806.91" width="179.81" height="607.09" transform="translate(-421.04 320.23) rotate(-24.98)"/><rect class="g" x="353.47" y="1048.04" width="79.27" height="235.88" transform="translate(-455.64 275.1) rotate(-24.98)"/><rect class="g" x="363.1" y="-78.36" width="1392.06" height="1863.81" transform="translate(-261.38 527.14) rotate(-24.98)"/><circle class="g" cx="1688.29" cy="560.42" r="307.41"/><path class="g" d="M88.98,277.45c13.98,30,.99,65.66-29.02,79.64"/><path class="g" d="M1045.11,860.08c-42.62-91.48-124.53-152.12-216.28-171.21l208.23,446.93c44.41-82.52,50.67-184.24,8.05-275.72Z"/><rect class="g" x="2420.34" y="-580.16" width="552.96" height="1345.66" transform="translate(5180.48 -962.24) rotate(155.02)"/><rect class="g" x="1626.95" y="-665.84" width="1386.26" height="1863.81" transform="translate(4535.48 -472.58) rotate(155.02)"/><path class="g" d="M2331.47,260.75c-42.62-91.48-36.36-193.2,8.05-275.72l208.23,446.93c-91.75-19.09-173.65-79.73-216.28-171.21Z"/></g><g class="j"><rect class="g" x="1699.31" y="1300.09" width="386.22" height="939.89" transform="translate(4355.31 2575.27) rotate(155.02)"/><rect class="g" x="1145.16" y="1240.24" width="968.25" height="1301.8" transform="translate(3904.8 2917.28) rotate(155.02)"/><path class="g" d="M1755.28,1114.36c9.76,20.96,34.67,30.03,55.63,20.27"/></g><g class="i"><rect class="g" x="497.32" y="-1300.74" width="664.48" height="1617.06" transform="translate(285.47 304.29) rotate(-24.98)"/><rect class="g" x="447.06" y="-1826.11" width="1672.82" height="2239.72" transform="translate(418.33 475.96) rotate(-24.98)"/><path class="g" d="M1063.53,631.65c-16.8-36.06-59.65-51.67-95.7-34.87"/></g></svg>