<?xml version="1.0" encoding="UTF-8"?><svg id="a" xmlns="http://www.w3.org/2000/svg" xmlns:xlink="http://www.w3.org/1999/xlink" viewBox="0 0 1080 1920"><defs><style>.e,.f{fill:none;}.f{stroke:#fff;stroke-miterlimit:10;stroke-width:20px;}.g{fill:#298024;}.h{clip-path:url(#d);}.i{clip-path:url(#c);}</style><clipPath id="b"><rect class="e" x="-2105.5" y="-1569.5" width="2555" height="1437"/></clipPath><clipPath id="c"><rect class="e" x="-2105.5" y="-19.5" width="1944.25" height="1093.5"/></clipPath><clipPath id="d"><rect class="e" x="-433.5" y="417.5" width="1944.25" height="1093.5" transform="translate(1502.88 425.62) rotate(90)"/></clipPath></defs><rect class="g" x="-468.99" y="428.3" width="2023" height="1126.4" transform="translate(1534.01 448.99) rotate(90)"/><g class="i"><rect class="f" x="-405.69" y="-269.91" width="386.22" height="939.89" transform="translate(-320.8 471.13) rotate(155.02)"/><rect class="f" x="-157.25" y="-67.02" width="125.59" height="424.03" transform="translate(-118.85 316.32) rotate(155.02)"/><rect class="f" x="-38.91" y="23.84" width="55.37" height="164.75" transform="translate(23.46 207.24) rotate(155.02)"/><rect class="f" x="-959.84" y="-329.76" width="968.25" height="1301.8" transform="translate(-771.31 813.14) rotate(155.02)"/><path class="f" d="M200.05,724.37c-9.76-20.96-.69-45.86,20.27-55.63"/></g><g class="h"><rect class="f" x="70.73" y="9.81" width="386.22" height="939.89" transform="translate(587.28 37.99) rotate(65.02)"/><rect class="f" x="146.01" y="149.62" width="125.59" height="424.03" transform="translate(448.42 19.64) rotate(65.02)"/><rect class="f" x="142.34" y="196.02" width="55.37" height="164.75" transform="translate(350.57 6.71) rotate(65.02)"/><rect class="f" x="-97.9" y="92.69" width="972.3" height="1301.8" transform="translate(898.3 77.63) rotate(65.02)"/><circle class="f" cx="592.98" cy="1183.03" r="214.72"/><path class="f" d="M790.62,65.98c-20.96,9.76-45.86.69-55.63-20.27"/><path class="f" d="M383.68,733.79c63.89-29.77,106.25-86.98,119.58-151.06l-312.16,145.44c57.64,31.02,128.69,35.39,192.58,5.62Z"/><rect class="f" x="726.57" y="1417.5" width="386.22" height="939.89" transform="translate(-402.79 3518.19) rotate(-114.98)"/><rect class="f" x="911.92" y="1793.55" width="125.59" height="424.03" transform="translate(-431.59 3736.09) rotate(-114.98)"/><rect class="f" x="314.45" y="973.41" width="968.25" height="1301.8" transform="translate(-336.52 3034.15) rotate(-114.98)"/><path class="f" d="M802.28,1632.27c63.89-29.77,134.94-25.4,192.58,5.62l-312.16,145.44c13.33-64.08,55.69-121.29,119.58-151.06Z"/></g></svg>