<?xml version="1.0" encoding="UTF-8"?><svg id="a" xmlns="http://www.w3.org/2000/svg" xmlns:xlink="http://www.w3.org/1999/xlink" viewBox="0 0 3840 1600"><defs><style>.e,.f,.g{fill:none;}.f{stroke-width:20px;}.f,.g{stroke:#fff;stroke-miterlimit:10;}.g{stroke-width:26px;}.h{fill:#298024;}.i{clip-path:url(#d);}.j{clip-path:url(#c);}.k{clip-path:url(#b);}</style><clipPath id="b"><rect class="e" x="-16.5" y="1733.5" width="2555" height="1437"/></clipPath><clipPath id="c"><rect class="e" x="-2.5" y="1" width="3837.5" height="1590.5"/></clipPath><clipPath id="d"><rect class="e" x="-4259.5" y="1" width="3837.5" height="1590.5"/></clipPath></defs><rect class="h" x="-44" y="-18.32" width="3930" height="1636.65"/><g class="k"><rect class="f" x="347.1" y="1654.64" width="1392.06" height="1863.81" transform="translate(-994.76 682.51) rotate(-24.98)"/><rect class="f" x="2404.34" y="1152.84" width="552.96" height="1345.66" transform="translate(5881.85 2348.39) rotate(155.02)"/><rect class="f" x="2760.03" y="1443.33" width="179.81" height="607.09" transform="translate(6170.99 2126.75) rotate(155.02)"/><rect class="f" x="2929.47" y="1573.42" width="79.27" height="235.88" transform="translate(6374.74 1970.57) rotate(155.02)"/><rect class="f" x="1610.95" y="1067.16" width="1386.26" height="1863.81" transform="translate(5236.85 2838.05) rotate(155.02)"/><path class="f" d="M2484.48,886.93c13.98,30,49.64,43,79.64,29.02"/></g><g class="j"><rect class="f" x="481.32" y="432.26" width="664.48" height="1617.06" transform="translate(-447.9 459.66) rotate(-24.98)"/><rect class="f" x="502.29" y="970.71" width="216.07" height="729.53" transform="translate(-506.9 382.69) rotate(-24.98)"/><rect class="f" x="419.49" y="1260.47" width="95.26" height="283.45" transform="translate(-548.47 328.45) rotate(-24.98)"/><rect class="f" x="431.06" y="-93.11" width="1672.82" height="2239.72" transform="translate(-315.04 631.33) rotate(-24.98)"/><circle class="f" cx="2023.53" cy="674.5" r="369.41"/><path class="f" d="M101.66,334.47c16.8,36.06,1.19,78.9-34.87,95.7"/><path class="f" d="M1250.62,1034.6c-51.22-109.93-149.64-182.8-259.9-205.74l250.22,537.07c53.37-99.17,60.89-221.4,9.67-331.33Z"/><rect class="f" x="2903.22" y="-696.11" width="664.48" height="1617.06" transform="translate(6215.71 -1152.07) rotate(155.02)"/><rect class="f" x="3330.65" y="-347.03" width="216.07" height="729.53" transform="translate(6563.17 -1418.41) rotate(155.02)"/><rect class="f" x="3534.27" y="-190.71" width="95.26" height="283.45" transform="translate(6808.01 -1606.09) rotate(155.02)"/><rect class="f" x="1949.82" y="-799.08" width="1665.85" height="2239.72" transform="translate(5440.62 -563.65) rotate(155.02)"/><path class="f" d="M2796.43,314.4c-51.22-109.93-43.69-232.16,9.67-331.33l250.22,537.07c-110.25-22.94-208.68-95.81-259.9-205.74Z"/></g><g class="i"><path class="g" d="M-1595.55,563.52c-242.8-521.14-2.34-1147.34,537.08-1398.66,14.28-6.65,28.63-12.96,43.04-18.96l319.55-148.88L183.17,883.78l-364.97,170.04-.22-.47c-538.81,249.26-1171.15,30.4-1413.53-489.84Z"/></g></svg>