<?xml version="1.0" encoding="UTF-8"?><svg id="a" xmlns="http://www.w3.org/2000/svg" xmlns:xlink="http://www.w3.org/1999/xlink" viewBox="0 0 1920 1080"><defs><style>.e,.f{fill:none;}.f{stroke:#fff;stroke-miterlimit:10;stroke-width:20px;}.g{fill:#298024;}.h{clip-path:url(#d);}.i{clip-path:url(#c);}.j{clip-path:url(#b);}</style><clipPath id="b"><rect class="e" x="-13.5" y="-1560.5" width="2555" height="1437"/></clipPath><clipPath id="c"><rect class="e" x="-13.5" y="-10.5" width="1944.25" height="1093.5"/></clipPath><clipPath id="d"><rect class="e" x="1658.5" y="426.5" width="1944.25" height="1093.5" transform="translate(3603.88 -1657.38) rotate(90)"/></clipPath></defs><rect class="g" x="-53" y="-24.4" width="2023" height="1126.4"/><g class="j"><rect class="f" x="391.92" y="-1202.16" width="552.96" height="1345.66" transform="translate(286.08 232.76) rotate(-24.98)"/><rect class="f" x="350.1" y="-1639.36" width="1392.06" height="1863.81" transform="translate(396.64 375.62) rotate(-24.98)"/><path class="f" d="M863.1,405.9c-13.98-30-49.64-43-79.64-29.02"/></g><g class="i"><rect class="f" x="278.62" y="394.94" width="386.22" height="939.89" transform="translate(-321.12 280.13) rotate(-24.98)"/><rect class="f" x="290.81" y="707.9" width="125.59" height="424.03" transform="translate(-355.42 235.39) rotate(-24.98)"/><rect class="f" x="242.68" y="876.32" width="55.37" height="164.75" transform="translate(-379.58 203.87) rotate(-24.98)"/><rect class="f" x="249.41" y="89.57" width="972.3" height="1301.8" transform="translate(-243.9 379.91) rotate(-24.98)"/><circle class="f" cx="1175" cy="535.73" r="214.72"/><path class="f" d="M57.95,338.09c9.76,20.96.69,45.86-20.27,55.63"/><path class="f" d="M725.76,745.03c-29.77-63.89-86.98-106.25-151.06-119.58l145.44,312.16c31.02-57.64,35.39-128.69,5.62-192.58Z"/><rect class="f" x="1686.31" y="-260.91" width="386.22" height="939.89" transform="translate(3671.29 -395.2) rotate(155.02)"/><rect class="f" x="1934.75" y="-58.02" width="125.59" height="424.03" transform="translate(3873.24 -550.01) rotate(155.02)"/><rect class="f" x="1132.16" y="-320.76" width="968.25" height="1301.8" transform="translate(3220.78 -53.19) rotate(155.02)"/><path class="f" d="M1624.24,326.43c-29.77-63.89-25.4-134.94,5.62-192.58l145.44,312.16c-64.08-13.33-121.29-55.69-151.06-119.58Z"/></g><g class="h"><rect class="f" x="2162.73" y="18.81" width="386.22" height="939.89" transform="translate(1803.95 -1853.1) rotate(65.02)"/><rect class="f" x="1994.1" y="101.69" width="972.3" height="1301.8" transform="translate(2114.97 -1813.46) rotate(65.02)"/><path class="f" d="M1702.61,624.75c20.96-9.76,30.03-34.67,20.27-55.63"/></g></svg>